<?xml version="1.0" encoding="UTF-8"?> <!-- Generator: Adobe Illustrator 23.0.3, SVG Export Plug-In . SVG Version: 6.00 Build 0) --> <svg xmlns="http://www.w3.org/2000/svg" xmlns:xlink="http://www.w3.org/1999/xlink" id="Layer_1" x="0px" y="0px" viewBox="0 0 252.13 80.7" style="enable-background:new 0 0 252.13 80.7;" xml:space="preserve"> <style type="text/css"> .st0{fill:#00467F;} .st1{fill:#00467F;stroke:#00467F;stroke-width:0.5;stroke-miterlimit:10;} .st2{fill:#14487E;} </style> <g> <path class="st0" d="M23.8,63.14c-4.07,0-4.37-2.16-4.37-4.37v-7.46h2.24v8.6c0,1.14,0.36,2.37,2.09,2.37 c1.88-0.04,1.98-1.32,1.98-2.37v-7.84c0-1.19-0.25-1.87-0.56-3.01c-0.46-1.74-1.02-2.67-1.88-4.28l-2.24-4.28 c-0.76-1.4-1.02-2.29-1.32-3.81c-0.3-1.48-0.3-2.42-0.3-3.94v-1.74c0-2.16,0.3-4.32,4.27-4.32c4.07,0,4.32,2.2,4.32,4.37v6.65 h-2.29v-7.84c0-1.1-0.25-2.33-1.98-2.33c-1.88,0.04-2.09,1.27-2.09,2.33v2.12c0,0.08,0,0.13,0,0.21c0,1.53,0.05,2.5,0.36,4.07 c0.31,1.4,0.61,2.25,1.32,3.6l2.14,4.07c0.46,0.98,1.27,2.33,1.73,3.86c0.51,1.61,0.81,2.33,0.81,4.2v6.82 C28.02,60.98,27.77,63.1,23.8,63.14L23.8,63.14z"></path> <path class="st0" d="M39.06,42.97v-13.1c0-1.06-0.1-2.29-1.98-2.33c-1.73,0-2.03,1.23-2.03,2.33v13.1H39.06L39.06,42.97z M41.3,62.89h-2.24V44.41h-4.02v18.48h-2.29V31.06c0-2.2,0.31-4.37,4.37-4.37c3.97,0,4.17,2.16,4.17,4.32V62.89L41.3,62.89z"></path> <polygon class="st0" points="52.54,48.65 52.54,26.86 54.78,26.86 54.78,62.89 52.54,62.89 52.54,56.02 48.47,36.69 48.47,62.89 46.23,62.89 46.23,26.86 48.27,26.86 52.54,48.65 "></polygon> <polygon class="st0" points="67.49,28.22 64.13,28.22 64.13,62.89 61.85,62.89 61.85,28.22 58.59,28.22 58.59,26.9 67.49,26.9 67.49,28.22 "></polygon> <path class="st0" d="M77.66,42.97v-13.1c0-1.06-0.1-2.29-1.98-2.33c-1.73,0-2.03,1.23-2.03,2.33v13.1H77.66L77.66,42.97z M79.9,62.89h-2.24V44.41h-4.02v18.48h-2.29V31.06c0-2.2,0.31-4.37,4.37-4.37c3.97,0,4.17,2.16,4.17,4.32V62.89L79.9,62.89z"></path> <path class="st0" d="M100.29,51.32v8.18c0,1.99-1.02,3.65-4.22,3.65c-3.2,0-4.37-1.57-4.37-3.52V31.06c0-2.2,0.3-4.37,4.37-4.37 c3.97,0,4.22,2.16,4.22,4.32v6.78H98v-7.93c0-1.06-0.1-2.29-1.93-2.33c-1.78,0-2.09,1.23-2.09,2.33v30.56 c0,0.93,0.81,1.78,2.09,1.78C97.4,62.17,98,61.4,98,60.47v-9.16H100.29L100.29,51.32z"></path> <path class="st0" d="M110.72,28.26c-0.41-0.17-1.02-0.34-1.68-0.34h-1.37v15.43h1.07c0.97,0,1.93-0.42,2.34-0.93 c0.36-0.38,0.56-1.53,0.56-2.5v-9.62C111.64,29.28,111.48,28.6,110.72,28.26L110.72,28.26z M111.64,62.89V47.63 c0-1.06-0.15-2.16-0.87-2.63c-0.71-0.51-1.22-0.64-2.09-0.64h-1.02v18.52h-2.29V26.95h3.82c0,0,0.1,0,0.25,0 c0.61,0,2.29,0.08,3.36,0.89c1.12,0.8,1.12,1.91,1.12,3.18c0,0.09,0,0.21,0,0.3v9.32c0,0.68-0.1,1.14-0.56,1.74 c-0.51,0.68-1.78,1.31-1.88,1.36c0.1,0.04,1.12,0.59,1.58,1.14c0.81,0.85,0.87,1.7,0.87,2.67c0,0.21,0,0.42,0,0.64v14.71H111.64 L111.64,62.89z"></path> <path class="st0" d="M120.84,60.47c0,0.93,0.66,1.74,1.98,1.74c1.27,0,1.93-0.85,1.93-1.78V26.9h2.29v32.72 c0,1.95-1.02,3.52-4.22,3.52c-3.2,0-4.27-1.65-4.27-3.65V26.9h2.29V60.47L120.84,60.47z"></path> <polygon class="st0" points="137.02,28.22 132.08,28.22 132.08,26.86 139.81,26.86 134.47,61.4 140.12,61.4 140.12,62.89 131.67,62.89 137.02,28.22 "></polygon> </g> <line class="st1" x1="146.2" y1="15.6" x2="146.2" y2="62.99"></line> <g> <path class="st2" d="M20.25,20.67c0,1.1,0,2.67,1.72,2.67c1.72,0,1.72-1.57,1.72-2.67v-5.31h0.75v5.86c0,2.17-1.15,2.75-2.47,2.75 s-2.47-0.57-2.47-2.75v-5.86h0.75V20.67z"></path> <path class="st2" d="M26.12,23.81v-8.44h1.15l3.42,7.41l0.02-0.02v-7.39h0.75v8.44h-1.13l-3.44-7.49l-0.02,0.02v7.47H26.12z"></path> <path class="st2" d="M34.04,15.37v8.44h-0.75v-8.44H34.04z"></path> <path class="st2" d="M39.97,15.37h0.72l-2.34,8.44h-0.94l-2.35-8.44h0.79l2,7.55h0.02L39.97,15.37z"></path> <path class="st2" d="M45.51,15.37V16h-3.07v3.16h2.93v0.63h-2.93v3.39h3.16v0.63h-3.9v-8.44H45.51z"></path> <path class="st2" d="M47.55,19.72v4.09H46.8v-8.44h2.33c1.63,0,2.03,0.54,2.03,2.02c0,1.05-0.18,1.75-1.31,2.01v0.02 c1.18,0.25,1.25,0.39,1.25,3.4c0,0.33,0.06,0.65,0.08,0.98h-0.71c-0.07-0.25-0.1-1.65-0.12-2.1c-0.01-0.36,0.23-1.99-1.39-1.99 H47.55z M47.55,19.08h1.22c1.12,0,1.65-0.29,1.65-1.71c0-1.16-0.46-1.38-1.33-1.38h-1.53V19.08z"></path> <path class="st2" d="M56.27,17.51c-0.02-1.04-0.28-1.67-1.43-1.67c-0.91,0-1.48,0.32-1.48,1.31c0,1.25,0.63,1.29,1.59,1.98 c1.04,0.75,2.1,0.97,2.1,2.61c0,1.51-0.77,2.24-2.24,2.24c-1.65,0-2.38-0.89-2.31-2.54h0.77c0,0.94,0.07,1.91,1.58,1.91 c0.98,0,1.46-0.53,1.46-1.5c0-1.15-0.76-1.47-1.98-2.22c-1.64-1-1.71-1.51-1.72-2.35c-0.01-1.46,0.91-2.07,2.29-2.07 c1.75,0,2.13,1.09,2.13,2.3H56.27z"></path> <path class="st2" d="M59.37,15.37v8.44h-0.75v-8.44H59.37z"></path> <path class="st2" d="M62.51,16h-2.06v-0.63h4.86V16h-2.06v7.81h-0.75V16z"></path> <path class="st2" d="M68.02,20.3l-2.38-4.93h0.84l1.93,4.2l2.02-4.2h0.75l-2.41,4.93v3.51h-0.75V20.3z"></path> <path class="st2" d="M77.18,15.2c2.52,0,2.55,2.1,2.55,4.38s-0.02,4.38-2.55,4.38c-2.52,0-2.55-2.1-2.55-4.38 S74.65,15.2,77.18,15.2z M77.18,23.34c1.78,0,1.8-1.51,1.8-3.75s-0.02-3.75-1.8-3.75c-1.78,0-1.8,1.51-1.8,3.75 S75.4,23.34,77.18,23.34z"></path> <path class="st2" d="M81.22,15.37h3.56V16h-2.82v3.16h2.62v0.63h-2.62v4.02h-0.75V15.37z"></path> <path class="st2" d="M88.24,19.59c0-2.28,0.02-4.38,2.55-4.38c2.05,0,2.08,1.68,2.08,2.44h-0.75c0-0.93-0.26-1.81-1.33-1.81 c-1.78,0-1.8,1.51-1.8,3.75s0.02,3.75,1.8,3.75c0.97,0,1.33-0.86,1.34-1.95h0.79c0,0.61-0.14,2.58-2.14,2.58 C88.26,23.97,88.24,21.87,88.24,19.59z"></path> <path class="st2" d="M97.12,15.37l2.63,8.44h-0.78l-0.68-2.22h-3.31l-0.67,2.22h-0.75l2.67-8.44H97.12z M98.09,20.95l-1.44-4.77 h-0.02l-1.43,4.77H98.09z"></path> <path class="st2" d="M100.7,23.81v-8.44h0.75v7.81h2.79v0.63H100.7z"></path> <path class="st2" d="M106.14,15.37v8.44h-0.75v-8.44H106.14z"></path> <path class="st2" d="M107.86,15.37h3.56V16h-2.82v3.16h2.62v0.63h-2.62v4.02h-0.75V15.37z"></path> <path class="st2" d="M114.86,15.2c2.52,0,2.55,2.1,2.55,4.38s-0.02,4.38-2.55,4.38c-2.53,0-2.55-2.1-2.55-4.38 S112.34,15.2,114.86,15.2z M114.86,23.34c1.78,0,1.8-1.51,1.8-3.75s-0.02-3.75-1.8-3.75c-1.78,0-1.8,1.51-1.8,3.75 S113.09,23.34,114.86,23.34z"></path> <path class="st2" d="M119.66,19.72v4.09h-0.75v-8.44h2.33c1.63,0,2.03,0.54,2.03,2.02c0,1.05-0.18,1.75-1.31,2.01v0.02 c1.18,0.25,1.25,0.39,1.25,3.4c0,0.33,0.06,0.65,0.08,0.98h-0.71c-0.07-0.25-0.11-1.65-0.12-2.1c-0.01-0.36,0.23-1.99-1.39-1.99 H119.66z M119.66,19.08h1.21c1.12,0,1.65-0.29,1.65-1.71c0-1.16-0.46-1.38-1.33-1.38h-1.53V19.08z"></path> <path class="st2" d="M124.86,23.81v-8.44h1.15l3.42,7.41l0.02-0.02v-7.39h0.75v8.44h-1.13l-3.44-7.49l-0.02,0.02v7.47H124.86z"></path> <path class="st2" d="M132.78,15.37v8.44h-0.75v-8.44H132.78z"></path> <path class="st2" d="M137.41,15.37l2.63,8.44h-0.78l-0.68-2.22h-3.31l-0.67,2.22h-0.75l2.67-8.44H137.41z M138.38,20.95l-1.44-4.77 h-0.02l-1.43,4.77H138.38z"></path> </g> <g> <path class="st2" d="M159.65,33.25h-3.5v-1.3h5.04v8.67c-1.54,0.48-3.14,0.72-4.78,0.72c-5.64,0-5.23-5.64-5.23-9s-0.41-9,5.23-9 c3.31,0,5.02,1.42,4.94,4.78h-1.54c0-2.28-0.98-3.48-3.41-3.48c-3.74,0-3.7,3.34-3.7,7.71s-0.05,7.7,3.7,7.7 c1.32,0,2.42-0.19,3.24-0.5L159.65,33.25L159.65,33.25z"></path> <path class="st2" d="M165.67,35.25v0.94c0,1.68,0.46,3.91,2.74,3.91c1.8,0,2.69-1.15,2.67-2.78h1.51 c-0.17,2.93-1.75,3.94-4.18,3.94c-2.09,0-4.18-0.84-4.18-4.51v-2.98c0-3.5,1.46-5.11,4.18-5.11c4.18,0,4.18,3,4.18,6.6 L165.67,35.25L165.67,35.25z M171.15,34.09c0-2.69-0.43-4.3-2.74-4.3c-2.3,0-2.74,1.61-2.74,4.3H171.15z"></path> <path class="st2" d="M176.64,41.01h-1.44V28.88h1.44v1.49h0.05c0.7-1.01,1.63-1.73,2.93-1.73c3,0,3.31,2.23,3.31,3.82V41h-1.44 v-8.47c0-1.42-0.55-2.74-2.23-2.74c-1.3,0-2.62,0.89-2.62,3.6V41.01z"></path> <path class="st2" d="M185.54,36.25v-2.62c0-3.14,1.34-4.99,4.18-4.99c2.83,0,4.18,1.85,4.18,4.99v2.62c0,3.15-1.34,4.99-4.18,4.99 C186.89,41.25,185.54,39.4,185.54,36.25z M186.98,34.93c0,3.17,0.36,5.16,2.74,5.16s2.74-1.99,2.74-5.16 c0-3.14-0.36-5.14-2.74-5.14C187.34,29.8,186.98,31.79,186.98,34.93z"></path> <path class="st2" d="M197.93,41.01h-1.44V28.86h1.3v1.51h0.05c0.58-0.98,1.54-1.73,2.88-1.73c1.25,0,2.35,0.7,2.76,1.9 c0.6-1.2,1.63-1.9,2.98-1.9c2.02,0,3.07,1.39,3.14,3.34V41h-1.44v-8.66c-0.02-1.2-0.46-2.54-1.87-2.54c-1.82,0-2.52,1.82-2.52,3.41 v7.8h-1.44v-8.66c-0.02-1.2-0.46-2.54-1.87-2.54c-1.82,0-2.52,1.82-2.52,3.41L197.93,41.01L197.93,41.01z"></path> <path class="st2" d="M212.83,25.5v-1.82h1.78v1.82H212.83z M213,41.01V28.88h1.44V41L213,41.01L213,41.01z"></path> <path class="st2" d="M223.25,32.37c0.07-1.51-0.48-2.57-2.14-2.57c-0.89,0-1.63,0.5-1.94,1.39c-0.19,0.55-0.34,2.21-0.34,3.82 c0,2.18,0,5.09,2.23,5.09c1.9,0,2.14-1.2,2.21-2.66h1.44c0.12,3.26-2.18,3.82-3.31,3.82c-4.1,0-4.1-3.24-4.1-6.24 c0-1.2,0.05-3.1,0.36-4.01c0.62-1.73,1.99-2.35,3.65-2.35c2.09,0,3.5,1.18,3.38,3.72L223.25,32.37L223.25,32.37z"></path> <path class="st2" d="M230.4,41.25c-2.62,0-3.65-1.27-3.63-3.84h1.46c0,1.66,0.38,2.76,2.23,2.76c1.39,0,2.06-0.79,2.06-2.14 c0-3.17-5.45-2.35-5.45-6.36c0-2.23,1.54-3.02,3.65-3.02c2.4,0,3.17,1.66,3.17,3.5h-1.42c-0.07-1.54-0.48-2.35-2.11-2.35 c-1.03,0-1.85,0.67-1.85,1.75c0,3.02,5.45,2.21,5.45,6.26C233.98,40.09,232.66,41.25,230.4,41.25z"></path> <path class="st2" d="M153.17,45.68v17.33h-1.54V45.68H153.17z"></path> <path class="st2" d="M157.97,63.01h-1.44V50.88h1.44v1.49h0.05c0.7-1.01,1.63-1.73,2.93-1.73c3,0,3.31,2.23,3.31,3.82V63h-1.44 v-8.47c0-1.42-0.55-2.74-2.23-2.74c-1.3,0-2.62,0.89-2.62,3.6V63.01z"></path> <path class="st2" d="M170.4,63.25c-2.62,0-3.65-1.27-3.63-3.84h1.46c0,1.66,0.38,2.76,2.23,2.76c1.39,0,2.06-0.79,2.06-2.14 c0-3.17-5.45-2.35-5.45-6.36c0-2.23,1.54-3.02,3.65-3.02c2.4,0,3.17,1.66,3.17,3.5h-1.42c-0.07-1.54-0.48-2.35-2.11-2.35 c-1.03,0-1.85,0.67-1.85,1.75c0,3.02,5.45,2.21,5.45,6.26C173.98,62.09,172.66,63.25,170.4,63.25z"></path> <path class="st2" d="M175.44,52.04v-1.15h1.94v-2.5l1.44-0.62v3.12h2.45v1.15h-2.45v7.78c0,1.61,0.17,1.99,1.32,1.99 c0.48,0,0.82-0.02,1.13-0.07v1.25c-0.43,0.05-0.91,0.07-1.37,0.07c-1.94,0-2.52-0.86-2.52-2.35v-8.66h-1.94V52.04z"></path> <path class="st2" d="M183.51,47.5v-1.82h1.78v1.82H183.51z M183.67,63.01V50.88h1.44V63L183.67,63.01L183.67,63.01z"></path> <path class="st2" d="M187.44,52.04v-1.15h1.94v-2.5l1.44-0.62v3.12h2.45v1.15h-2.45v7.78c0,1.61,0.17,1.99,1.32,1.99 c0.48,0,0.82-0.02,1.13-0.07v1.25c-0.43,0.05-0.91,0.07-1.37,0.07c-1.94,0-2.52-0.86-2.52-2.35v-8.66h-1.94V52.04z"></path> <path class="st2" d="M202.83,50.88V63h-1.25v-1.34h-0.05c-0.84,1.03-1.7,1.58-3.05,1.58c-2.5,0-3.19-1.82-3.19-3.79v-8.57h1.44 v8.33c0,0.34-0.07,2.88,2.02,2.88c1.94,0,2.64-1.82,2.64-2.66v-8.54h1.44V50.88z"></path> <path class="st2" d="M204.77,52.04v-1.15h1.94v-2.5l1.44-0.62v3.12h2.45v1.15h-2.45v7.78c0,1.61,0.17,1.99,1.32,1.99 c0.48,0,0.82-0.02,1.13-0.07v1.25c-0.43,0.05-0.91,0.07-1.37,0.07c-1.94,0-2.52-0.86-2.52-2.35v-8.66h-1.94V52.04z"></path> <path class="st2" d="M213.65,57.25v0.94c0,1.68,0.46,3.91,2.74,3.91c1.8,0,2.69-1.15,2.67-2.78h1.51 c-0.17,2.93-1.75,3.94-4.18,3.94c-2.09,0-4.18-0.84-4.18-4.51v-2.98c0-3.5,1.46-5.11,4.18-5.11c4.18,0,4.18,3,4.18,6.6 L213.65,57.25L213.65,57.25z M219.12,56.09c0-2.69-0.43-4.3-2.74-4.3c-2.3,0-2.74,1.61-2.74,4.3H219.12z"></path> </g> </svg> 